<?xml version="1.0" encoding="UTF-8"?><svg width="800px" height="800px" id="Layer_1" viewBox="0 0 511.99 511.99" xmlns="http://www.w3.org/2000/svg">
<path d="m192 212.65c-42.038-5.266-74.663-41.218-74.663-84.655 0-43.452 32.625-79.405 74.663-84.67v-21.468c-53.828 5.359-95.999 50.921-95.999 106.14 0 55.202 42.171 100.76 95.998 106.12l1e-3 -21.468z" fill="#434A54"/>
<path d="m357.91 79.499-51.467-71.592c-1.969-3.016-2.984-4.422-6.578-4.422l-107.87-3.485c-5.891 0-10.664 4.766-10.664 10.656v106.67c0 5.891 4.773 10.672 10.664 10.672h85.327c5.891 0 10.672-4.781 10.672-10.672v-21.327h60.998c3.906 0 7.5-2.156 9.375-5.593 1.858-3.438 1.687-7.625-0.454-10.907z" fill="#CCD1D9"/>
<path d="m415.98 383.99c-5.656 0-10.375-4.453-10.641-10.172-2.797-59.232-10.531-114.8-23.016-165.14-9.969-40.203-22.969-77.202-38.624-109.95-19.281-40.296-39.327-66.608-49.468-77.405h-123.56c-5.891 0-10.672-4.781-10.672-10.672s4.781-10.656 10.672-10.656h128c2.703 0 5.297 1.016 7.281 2.875 1.125 1.047 27.983 26.531 56.311 85.233 16.438 34.093 30.062 72.545 40.484 114.31 12.984 51.999 21.031 109.33 23.906 170.4 0.281 5.875-4.266 10.875-10.156 11.156-0.172 0-0.344 0.016-0.516 0.016z" fill="#E6E9ED"/>
<path d="m340.63 177.12c-16.094-37.562-31.983-64.171-32.655-65.28-1.922-3.218-5.391-5.187-9.141-5.187h-128.17c-3.75 0-7.219 1.969-9.148 5.187-0.672 1.109-16.562 27.719-32.656 65.28-21.812 50.874-32.867 95.358-32.867 132.2 0 36.842 11.054 81.311 32.866 132.2 16.094 37.561 31.984 64.17 32.656 65.279 1.93 3.219 5.398 5.188 9.148 5.188h128.17c3.75 0 7.219-1.969 9.141-5.188 0.672-1.109 16.562-27.719 32.655-65.279 21.812-50.891 32.874-95.359 32.874-132.2 1e-3 -36.844-11.062-81.328-32.873-132.2z" fill="#8CC153"/>
<g fill="#A0D468">
<path d="m289.71 161.37c0.688 5.312 5.219 9.281 10.562 9.281h31.499c3.734 0 7.203-1.953 9.125-5.141 1.938-3.203 2.062-7.171 0.328-10.468l-22.359-42.671c-1.843-3.515-5.483-5.718-9.452-5.718h-15.859c-3.172 0-6.188 1.422-8.219 3.859-2.016 2.453-2.859 5.672-2.266 8.797 2.453 12.983 4.688 27.14 6.641 42.061z"/>
<path d="m212.14 170.65h45.062c3.086 0 6.016-1.328 8.039-3.656s2.945-5.406 2.531-8.453c-0.219-1.562-0.43-3.094-0.641-4.562-1.992-13.937-4.227-26.984-6.633-38.796-1.016-4.969-5.382-8.531-10.453-8.531h-30.75c-5.07 0-9.438 3.562-10.453 8.531-2.406 11.812-4.64 24.859-6.632 38.796-0.211 1.469-0.422 3-0.633 4.562-0.422 3.047 0.5 6.141 2.523 8.453 2.033 2.328 4.962 3.656 8.04 3.656z"/>
<path d="m137.54 170.65h31.523c5.352 0 9.883-3.969 10.578-9.281 1.945-14.921 4.171-29.078 6.632-42.062 0.586-3.125-0.242-6.344-2.273-8.797-2.023-2.437-5.039-3.859-8.21-3.859h-15.883c-3.969 0-7.609 2.203-9.453 5.718l-22.359 42.671c-1.734 3.297-1.617 7.266 0.32 10.468 1.93 3.189 5.391 5.142 9.125 5.142z"/>
<path d="m297.02 195.45c-2.016 2.203-3.016 5.156-2.766 8.125 1.188 13.671 2.156 27.89 2.859 42.28 0.281 5.672 4.969 10.141 10.656 10.141h56.17c3.422 0 6.625-1.641 8.625-4.406 2.016-2.766 2.578-6.328 1.516-9.578l-13.906-42.655c-1.422-4.391-5.516-7.359-10.141-7.359h-45.154c-2.984-2e-3 -5.843 1.248-7.859 3.452z"/>
<path d="m204.32 256h60.717c2.922 0 5.719-1.203 7.727-3.328 2.016-2.125 3.078-4.984 2.922-7.891-0.75-14.609-1.781-29.093-3.047-43.077-0.5-5.5-5.102-9.703-10.617-9.703h-54.686c-5.516 0-10.125 4.203-10.617 9.703-1.266 13.984-2.289 28.468-3.047 43.077-0.148 2.906 0.906 5.766 2.914 7.891 2.015 2.125 4.812 3.328 7.734 3.328z"/>
<path d="m105.38 256h56.194c5.688 0 10.375-4.469 10.656-10.141 0.703-14.375 1.672-28.593 2.852-42.28 0.266-2.969-0.742-5.922-2.766-8.125-2.016-2.203-4.867-3.453-7.859-3.453h-45.179c-4.617 0-8.711 2.969-10.141 7.359l-13.906 42.655c-1.055 3.25-0.492 6.812 1.516 9.578 2 2.767 5.211 4.407 8.633 4.407z"/>
<path d="m160.2 341.32c2.859 0 5.594-1.156 7.602-3.188s3.109-4.797 3.062-7.654c-0.117-7.078-0.172-14.172-0.172-21.062 0-6.953 0.055-14.109 0.164-21.266 0.047-2.859-1.055-5.609-3.062-7.641-2-2.047-4.742-3.188-7.602-3.188h-64.194c-5.891 0-10.664 4.766-10.664 10.672v42.656c0 5.889 4.773 10.67 10.664 10.67l64.202 1e-3z"/>
<path d="m266.48 277.32h-63.608c-5.82 0-10.57 4.672-10.664 10.484-0.125 7.281-0.188 14.547-0.188 21.609 0 7 0.062 14.203 0.188 21.422 0.102 5.811 4.844 10.482 10.664 10.482h63.608c5.812 0 10.562-4.672 10.656-10.482 0.125-7.219 0.188-14.422 0.188-21.422 0-7.078-0.062-14.344-0.188-21.609-0.093-5.812-4.843-10.484-10.656-10.484z"/>
<path d="m373.32 277.32h-64.17c-2.859 0-5.594 1.141-7.594 3.188-2.016 2.031-3.109 4.781-3.062 7.641 0.109 7.141 0.172 14.281 0.172 21.266 0 6.891-0.062 13.984-0.188 21.062-0.047 2.857 1.062 5.623 3.062 7.654 2.016 2.031 4.75 3.188 7.609 3.188h64.17c5.891 0 10.672-4.781 10.672-10.67v-42.657c1e-3 -5.906-4.78-10.672-10.671-10.672z"/>
<path d="m256.86 447.99h-44.375c-3.094 0-6.031 1.326-8.054 3.67-2.031 2.328-2.945 5.422-2.508 8.484 0.219 1.547 0.438 3.062 0.656 4.516 2.07 13.969 4.398 27.047 6.906 38.875 1.047 4.922 5.398 8.453 10.438 8.453h29.507c5.031 0 9.382-3.531 10.429-8.453 2.508-11.828 4.836-24.906 6.906-38.875 0.219-1.453 0.438-2.969 0.656-4.516 0.438-3.062-0.477-6.156-2.508-8.484-2.022-2.344-4.96-3.67-8.053-3.67z"/>
<path d="m331.87 447.99h-31.905c-5.328 0-9.844 3.936-10.562 9.232-2.016 14.906-4.328 29.047-6.875 42.047-0.609 3.125 0.203 6.359 2.234 8.828 2.031 2.453 5.047 3.891 8.234 3.891h16.516c3.969 0 7.594-2.203 9.437-5.719l22.375-42.672c1.734-3.297 1.609-7.281-0.328-10.469-1.923-3.202-5.392-5.138-9.126-5.138z"/>
<path d="m179.95 457.23c-0.718-5.297-5.234-9.232-10.57-9.232h-31.75c-3.734 0-7.195 1.936-9.125 5.139-1.93 3.188-2.055 7.172-0.32 10.469l22.367 42.672c1.843 3.516 5.484 5.719 9.445 5.719h16.352c3.188 0 6.21-1.438 8.242-3.891 2.023-2.469 2.844-5.703 2.227-8.828-2.54-13.001-4.853-27.141-6.868-42.048z"/>
<path d="m172.48 423.18c2.023-2.203 3.016-5.172 2.75-8.156-1.227-13.656-2.219-27.875-2.953-42.25-0.297-5.672-4.977-10.125-10.656-10.125h-56.155c-3.414 0-6.625 1.641-8.632 4.406-2.008 2.766-2.57 6.312-1.508 9.562l13.898 42.672c1.43 4.391 5.523 7.359 10.141 7.359h45.241c2.999 0 5.851-1.25 7.874-3.468z"/>
<path d="m264.98 362.65h-60.608c-2.93 0-5.727 1.203-7.742 3.328s-3.062 4.984-2.906 7.906c0.781 14.609 1.844 29.109 3.156 43.094 0.516 5.484 5.109 9.672 10.617 9.672h54.358c5.508 0 10.109-4.188 10.609-9.672 1.312-13.969 2.375-28.469 3.156-43.094 0.156-2.922-0.891-5.781-2.906-7.906-2.007-2.125-4.804-3.328-7.734-3.328z"/>
<path d="m364.04 362.65h-56.311c-5.688 0-10.359 4.453-10.656 10.125-0.734 14.391-1.734 28.609-2.953 42.25-0.266 2.984 0.719 5.953 2.75 8.156 2.016 2.219 4.875 3.469 7.875 3.469h45.389c4.625 0 8.719-2.969 10.141-7.359l13.906-42.672c1.062-3.25 0.5-6.797-1.516-9.562-2-2.766-5.219-4.407-8.625-4.407z"/></g></svg>
