<?xml version="1.0" encoding="UTF-8"?><svg width="800px" height="800px" id="_x32_" viewBox="0 0 512 512"><path d="M256 0C114.62 0 0 114.61 0 256s114.62 256 256 256 256-114.61 256-256S397.38 0 256 0zm-48.322 378.79c0-17.612 14.281-31.893 31.893-31.893 17.599 0 31.88 14.281 31.88 31.893 0 17.595-14.281 31.884-31.88 31.884-17.612 0-31.893-14.289-31.893-31.884zm135.95-159.94c-3.596 9.793-8.802 18.289-14.695 25.356-11.847 14.148-25.888 22.718-37.442 29.041-7.719 4.174-14.533 7.389-18.769 9.769-2.905 1.604-4.479 2.95-5.256 3.826-.768.926-1.029 1.306-1.496 2.826-.273 1.009-.558 2.612-.558 5.091v12.512c0 6.472-5.248 11.728-11.723 11.728h-28.252c-6.475 0-11.732-5.256-11.732-11.728v-12.512c0-6.438.752-12.744 2.405-18.777 1.636-6.008 4.215-11.718 7.508-16.694 6.599-10.083 15.542-16.802 23.984-21.48 7.401-4.074 14.723-7.455 21.516-11.281 6.789-3.793 12.843-7.91 17.302-12.372 2.988-2.975 5.31-6.05 7.087-9.52 2.335-4.628 3.955-10.067 3.992-18.389.012-2.463-.698-5.702-2.632-9.405-1.926-3.686-5.066-7.694-9.264-11.29-8.45-7.248-20.843-12.545-35.054-12.521-16.285.058-27.186 3.876-35.587 8.62-8.36 4.776-11.029 9.595-11.029 9.595-4.268 3.718-10.603 3.85-15.025.314l-21.71-17.397c-2.719-2.173-4.322-5.438-4.396-8.926-.063-3.479 1.425-6.81 4.061-9.099 0 0 6.765-10.43 22.451-19.38 15.62-8.992 36.322-15.488 61.236-15.429 20.215 0 38.839 5.562 54.268 14.661 15.434 9.148 27.897 21.744 35.851 36.876 5.281 10.074 8.525 21.43 8.533 33.38.012 11.795-1.951 22.811-5.574 32.605z" fill="#333"/></svg>
