<?xml version="1.0" encoding="iso-8859-1"?><svg height="800px" width="800px" id="Layer_1" xmlns="http://www.w3.org/2000/svg" viewBox="0 0 511.998 511.998">
<path d="m416.42 260.43 9.584 55.385c-50.508 12.682-105.41 3.606-149.67-27.202-8.773-6.111-17.135-13.069-24.952-20.898l39.618-39.618c33.955 33.967 82.321 44.736 125.42 32.333z" fill="#808080"/>
<path d="m234.2 332.06 20.753 71.685-34.426 14.63-19.289-45.765c-3.074-7.273-8.737-13.153-15.9-16.481l-15.283-7.091 40.562-40.562 23.583 23.584z" fill="#FCBB29"/>
<polygon points="338.17 164.58 295.4 207.34 264.58 176.52 263.95 175.89 306.72 133.13 313.48 139.89 312.85 140.52 332.98 160.64 333.6 160.02" fill="#FCBB29"/>
<polygon points="251.38 267.71 230.31 288.79 210.61 308.48 170.05 349.04 166.22 345.2 140.84 319.82 140.84 299.02 263.95 175.89 264.58 176.52 295.4 207.34 291 228.09" fill="#4D4D4D"/>
<polygon points="140.84 319.82 166.22 345.2 95.935 502.92 28.401 461.15 88.517 383.07 111.94 375.26" fill="#FCBB29"/>
<path d="m490.02 16.435c3.544-3.544 3.544-9.29 0-12.834s-9.291-3.544-12.834 0l-3.331 3.331-4.274-4.274c-3.543-3.544-9.29-3.544-12.834 0s-3.544 9.29 0 12.835l4.274 4.274-60.202 60.203-21.947-9.976c-3.443-1.565-7.499-0.83-10.173 1.845l-55.217 55.217-0.344-0.344c-3.544-3.544-9.291-3.544-12.834 0l-165.88 165.88c-1.703 1.701-2.659 4.01-2.659 6.417v18.588l-26.167 50.212-19.942 6.647c-1.715 0.571-3.219 1.641-4.321 3.074l-60.124 78.082c-1.567 2.035-2.199 4.638-1.738 7.165s1.97 4.74 4.154 6.09l67.541 41.774c1.45 0.897 3.105 1.357 4.775 1.357 0.897 0 1.797-0.133 2.672-0.403 2.504-0.771 4.551-2.587 5.617-4.979l65.762-147.6 11.52 5.349c5.128 2.381 9.163 6.562 11.359 11.773l19.289 45.762c0.937 2.222 2.719 3.98 4.953 4.885 1.094 0.443 2.252 0.666 3.41 0.666 1.208 0 2.414-0.241 3.548-0.722l34.434-14.622c4.227-1.795 6.447-6.465 5.169-10.877l-19.263-66.547 33.913-33.913c16.372 10.333 34.258 18.19 53.059 23.183 16.238 4.313 32.967 6.47 49.7 6.47 15.849 0 31.703-1.936 47.138-5.812 4.608-1.157 7.544-5.67 6.733-10.351l-9.593-55.386c-0.44-2.541-1.941-4.774-4.125-6.142-2.187-1.369-4.851-1.743-7.327-1.03-39.855 11.471-82.684 1.24-112.98-26.671l2.796-13.176 40.863-40.864c1.703-1.701 2.659-4.01 2.659-6.417 0-1.509-0.376-2.978-1.076-4.285l63.039-63.039 80.815-80.814zm-340.11 286.34 114.04-114.04 21.545 21.545-2.823 13.306-112.62 112.62-20.142-20.14v-13.294h1e-3zm84.29 16.452-10.75-10.75 6.855-6.855 10.749 10.75-6.854 6.855zm-142.32 170.52-50.155-31.02 52.298-67.919 20.795-6.931c2.234-0.744 4.09-2.328 5.178-4.416l23.173-44.466 12.217 12.217-63.506 142.54zm133.47-83.275-15.754-37.377c-3.952-9.377-11.213-16.901-20.442-21.187l-3.504-1.628 24.966-24.966 15.517 15.516 17.866 61.722-18.649 7.92zm28.539-106.93-10.75-10.75 8.404-8.404c3.771 3.429 7.661 6.711 11.678 9.821l-9.332 9.333zm155.25-27.959 6.457 37.281c-26.282 5.264-53.611 4.442-79.555-2.447-26.599-7.064-51.201-20.428-71.664-38.861l26.832-26.832c32.254 28.228 75.986 39.653 117.93 30.859zm-113.74-77.07-18.611-18.611 29.319-29.319c0.109 0.121 0.211 0.244 0.326 0.361l18.267 18.267-29.301 29.302zm38.205-47.326-7.291-7.291 50.768-50.768 10.024 4.556-53.501 53.503z" fill="#333"/>
<path d="m181.45 306.46c2.322 0 4.645-0.886 6.417-2.659l17.529-17.529c3.544-3.544 3.544-9.29 0-12.834-3.543-3.544-9.29-3.544-12.834 0l-17.529 17.529c-3.544 3.544-3.544 9.29 0 12.834 1.773 1.773 4.095 2.659 6.417 2.659z" fill="#333"/></svg>
