<?xml version="1.0" encoding="iso-8859-1"?><svg height="800px" width="800px" id="Layer_1" xmlns="http://www.w3.org/2000/svg" viewBox="0 0 511.996 511.996">
<polygon style="fill:#808080;" points="341.565,163.824 273.108,243.16 244.33,214.383 318.232,140.491 335.338,157.597"/>
<polygon style="fill:#808080;" points="280.885,280.497 247.443,313.949 224.881,291.387 258.334,257.945"/>
<path style="fill:#B3B3B3;" d="M273.108,243.16l-14.774,14.785l-33.453,33.442l-16.336,16.336l-28.778,28.789l-33.024,33.024 l-11.925-25.555c-0.176-0.363-0.33-0.737-0.484-1.1c-3.19-7.975-1.353-17.15,4.785-23.277l31.704-31.704l48.227-48.238
l25.279-25.279L273.108,243.16z"/>
<polygon style="fill:#4D4D4D;" points="178.689,244.238 159.933,262.995 121.53,301.409 104.413,284.292 199.216,189.488 
216.322,206.605 194.156,228.771"/>
<path style="fill:#808080;" d="M204.343,391.636c2.409,5.401,0.451,11.749-4.587,14.862l-27.766,17.128l-11.606-24.872
l-13.641-29.218l33.024-33.024l11.903,26.688L204.343,391.636z"/>
<path style="fill:#666666;" d="M146.743,369.536l13.641,29.218l-1.617,0.759l-71.57,104.231l-0.792-1.155
c-7.667-11.133-16.556-21.319-26.479-30.395c-9.912-9.065-20.846-17.018-32.617-23.673l105.012-105.012l2.013-0.627
c0.154,0.363,0.308,0.737,0.484,1.1L146.743,369.536z"/>
<path style="fill:#333333;" d="M490.523,2.417c-3.221-3.222-8.445-3.222-11.667,0l-41.615,41.615l-7.39-7.39
c-3.222-3.222-8.446-3.221-11.667,0c-3.222,3.222-3.222,8.446,0,11.668l7.39,7.39l-53.534,53.531l-24.193-4.838
c-2.706-0.542-5.501,0.305-7.452,2.256L217.45,229.595l-8.769-3.678l8.768-8.768c0.425,0.066,0.851,0.108,1.28,0.108
c2.111,0,4.223-0.805,5.834-2.417c3.222-3.222,3.222-8.445,0-11.667l-21.919-21.919c-3.222-3.222-8.446-3.222-11.667,0
c-1.938,1.938-2.702,4.599-2.308,7.114l-85.379,85.379c-2.515-0.394-5.177,0.37-7.114,2.308c-3.222,3.222-3.222,8.445,0,11.667
l21.919,21.919c1.61,1.612,3.723,2.417,5.834,2.417s4.223-0.805,5.834-2.417c1.938-1.938,2.702-4.599,2.308-7.114l25.007-25.007
l3.678,8.769l-27.472,27.472c-6.773,6.773-9.74,16.312-8.384,25.497L21.473,442.685c-1.823,1.823-2.69,4.394-2.341,6.948
c0.348,2.554,1.87,4.8,4.115,6.068c22.326,12.619,41.817,30.452,56.364,51.57l0.796,1.156c1.54,2.235,4.08,3.57,6.794,3.57
c0.002,0,0.004,0,0.007,0c2.716-0.002,5.257-1.341,6.795-3.581l64.564-94.039l5.945,12.739c0.996,2.134,2.856,3.74,5.112,4.416
c0.776,0.232,1.571,0.347,2.364,0.347c1.515,0,3.017-0.417,4.333-1.229l27.763-17.131c8.516-5.254,11.865-16.108,7.791-25.247
l-10.271-23.041l22.889-22.89c2.21-2.21,2.981-5.478,1.993-8.443l-8.111-24.332l6.507-6.507l16.724,16.724
c3.222,3.222,8.446,3.222,11.667,0l33.447-33.449c3.222-3.222,3.222-8.445,0-11.667l-16.724-16.724l77.811-88.732
c2.823-3.272,2.642-8.168-0.413-11.223l-0.389-0.389L490.523,14.084C493.745,10.862,493.745,5.639,490.523,2.417z M178.695,232.57
l-5.445-5.445l25.965-25.965l5.445,5.445L178.695,232.57z M161.581,238.793l5.445,5.445l-45.502,45.502l-5.445-5.445
L161.581,238.793z M169.682,264.917l26.393-26.393l8.769,3.678l-31.484,31.484L169.682,264.917z M87.008,489.454
c-12.924-16.642-28.719-31.116-46.425-42.542l90.795-90.795l19.089,40.907L87.008,489.454z M195.42,399.476l-19.875,12.264
l-18.882-40.46l20.454-20.453l19.688,44.165C197.529,396.615,196.934,398.543,195.42,399.476z M209.22,334.28l-14.811,14.811
l-4.796-10.761l15.719-15.719L209.22,334.28z M149.239,355.369l-6.943-14.877c-2.361-5.059-1.295-11.111,2.653-15.059l99.381-99.381
l17.114,17.113L149.239,355.369z M247.441,302.282l-10.891-10.89l21.78-21.78l10.89,10.891L247.441,302.282z M272.665,231.051
l-16.667-16.667l62.23-62.23l11.277,11.277c0.001,0.001,0.001,0.002,0.002,0.002c0.001,0.001,0.002,0.001,0.002,0.002l0.801,0.801
L272.665,231.051z M329.894,140.487l19.047-19.047l9.076,1.815l-22.677,22.677L329.894,140.487z"/></svg>
