<?xml version="1.0" encoding="iso-8859-1"?>
<!-- Uploaded to: SVG Repo, www.svgrepo.com, Generator: SVG Repo Mixer Tools -->
<!DOCTYPE svg PUBLIC "-//W3C//DTD SVG 1.1//EN" "http://www.w3.org/Graphics/SVG/1.1/DTD/svg11.dtd">
<svg fill="#000000" version="1.1" id="Capa_1" xmlns="http://www.w3.org/2000/svg" xmlns:xlink="http://www.w3.org/1999/xlink" 
	 width="800px" height="800px" viewBox="0 0 31.783 31.783"
	 xml:space="preserve">
<g>
	<g>
		<path d="M3.026,19.05c0,0,0.292-1.205-0.714-2.244c-1.007-1.042-2.267-1.042-2.267-1.042s-0.307,1.417,0.675,2.431
			C1.703,19.208,3.026,19.05,3.026,19.05z"/>
		<g>
			<path d="M18.404,20.029V8.978H15.8c-0.021,0.456-0.129,0.839-0.326,1.151c-0.196,0.312-0.447,0.562-0.753,0.746
				c-0.308,0.186-0.651,0.317-1.033,0.397c-0.381,0.079-0.772,0.114-1.175,0.104v2.286h2.589v6.367H18.404z"/>
			<path d="M8.284,14.196c-0.082-0.45-0.13-0.911-0.13-1.385c0-4.278,3.461-7.759,7.73-7.796v0.004
				c4.278,0.028,7.749,3.514,7.749,7.797c0,0.474-0.049,0.935-0.13,1.385h1.957c0.064-0.454,0.109-0.913,0.109-1.385
				c0-5.345-4.331-9.696-9.667-9.734V3.076c-5.345,0.028-9.685,4.384-9.685,9.735c0,0.472,0.045,0.931,0.11,1.385H8.284z"/>
			<path d="M5.236,18.822c0,0,1.169-0.643,1.377-2.037c0.208-1.396-0.867-2.37-0.867-2.37s-1.023,0.734-1.237,2.166
				C4.296,18.011,5.236,18.822,5.236,18.822z"/>
			<path d="M6.003,20.2c-0.024,1.446,1.013,2.127,1.013,2.127s1.075-0.79,1.1-2.2c0.023-1.41-1.169-2.236-1.169-2.236
				S6.027,18.751,6.003,20.2z"/>
			<path d="M9.177,19.931c0,0-0.834,0.944-0.723,2.389c0.112,1.443,1.208,2.021,1.208,2.021s0.997-0.886,0.889-2.293
				C10.441,20.642,9.177,19.931,9.177,19.931z"/>
			<path d="M12.985,26.08c0,0,0.7-1.137,0.191-2.453c-0.51-1.314-1.926-1.631-1.926-1.631s-0.527,1.145-0.004,2.495
				C11.769,25.841,12.985,26.08,12.985,26.08z"/>
			<path d="M3.5,15.963c0,0,0.913-0.84,0.652-2.264c-0.259-1.423-1.307-2.123-1.307-2.123s-1.041,1.009-0.787,2.398
				C2.311,15.361,3.5,15.963,3.5,15.963z"/>
			<path d="M4.25,21.777c0,0-0.076-1.238-1.344-1.936c-1.269-0.697-2.473-0.326-2.473-0.326s0.125,1.444,1.362,2.125
				C3.03,22.32,4.25,21.777,4.25,21.777z"/>
			<path d="M6.395,24.173c0,0-0.349-1.189-1.74-1.588c-1.393-0.396-2.484,0.231-2.484,0.231s0.443,1.381,1.799,1.769
				C5.327,24.972,6.395,24.173,6.395,24.173z"/>
			<path d="M8.787,25.876c0,0-0.693-1.027-2.14-0.986c-1.448,0.041-2.297,0.972-2.297,0.972s0.84,1.183,2.25,1.142
				C8.01,26.962,8.787,25.876,8.787,25.876z"/>
			<path d="M9.81,26.572c-1.432,0.215-2.165,1.238-2.165,1.238s0.976,1.074,2.371,0.865c1.396-0.211,2.036-1.381,2.036-1.381
				S11.239,26.356,9.81,26.572z"/>
			<path d="M3.975,16.667l-0.689-0.023c-0.003,0.074-0.138,7.559,11.168,10.875l0.194-0.662C3.882,23.699,3.965,16.954,3.975,16.667
				z"/>
			<path d="M28.758,19.056c0,0,1.325,0.158,2.306-0.855c0.981-1.014,0.675-2.431,0.675-2.431s-1.26,0-2.267,1.041
				C28.466,17.849,28.758,19.056,28.758,19.056z"/>
			<path d="M25.171,16.79c0.208,1.396,1.377,2.037,1.377,2.037s0.939-0.81,0.727-2.241s-1.236-2.166-1.236-2.166
				S24.963,15.394,25.171,16.79z"/>
			<path d="M23.669,20.132c0.023,1.409,1.1,2.199,1.1,2.199s1.037-0.68,1.013-2.127c-0.023-1.447-0.942-2.309-0.942-2.309
				S23.646,18.722,23.669,20.132z"/>
			<path d="M21.232,22.054c-0.107,1.407,0.89,2.293,0.89,2.293s1.097-0.578,1.208-2.021c0.11-1.443-0.724-2.389-0.724-2.389
				S21.343,20.648,21.232,22.054z"/>
			<path d="M18.608,23.632C18.1,24.949,18.8,26.085,18.8,26.085s1.217-0.238,1.739-1.589c0.521-1.351-0.004-2.495-0.004-2.495
				S19.119,22.318,18.608,23.632z"/>
			<path d="M29.728,13.979c0.254-1.389-0.787-2.398-0.787-2.398s-1.048,0.7-1.308,2.124c-0.26,1.423,0.652,2.264,0.652,2.264
				S29.475,15.367,29.728,13.979z"/>
			<path d="M28.88,19.847c-1.269,0.697-1.344,1.936-1.344,1.936s1.219,0.543,2.456-0.137c1.235-0.68,1.361-2.125,1.361-2.125
				S30.148,19.15,28.88,19.847z"/>
			<path d="M27.131,22.591c-1.392,0.397-1.74,1.588-1.74,1.588s1.068,0.799,2.425,0.412c1.356-0.389,1.799-1.77,1.799-1.77
				S28.523,22.193,27.131,22.591z"/>
			<path d="M25.138,24.894c-1.446-0.041-2.14,0.988-2.14,0.988s0.775,1.086,2.187,1.127c1.41,0.041,2.25-1.143,2.25-1.143
				S26.586,24.937,25.138,24.894z"/>
			<path d="M21.976,26.577c-1.431-0.215-2.242,0.724-2.242,0.724s0.641,1.17,2.036,1.381c1.396,0.207,2.371-0.864,2.371-0.864
				S23.408,26.792,21.976,26.577z"/>
			<path d="M28.501,16.649l-0.689,0.024c0.009,0.285,0.091,7.03-10.673,10.189l0.194,0.663
				C28.639,24.208,28.503,16.724,28.501,16.649z"/>
		</g>
	</g>
</g>
</svg>