<?xml version="1.0" encoding="iso-8859-1"?><svg fill="#000000" id="Capa_1" xmlns="http://www.w3.org/2000/svg" width="800px" height="800px" viewBox="0 0 31.783 31.783"><path d="M3.026 19.05s.292-1.205-.714-2.244S.045 15.764.045 15.764s-.307 1.417.675 2.431 2.306.855 2.306.855zm15.378.979V8.978H15.8c-.021.456-.129.839-.326 1.151s-.447.562-.753.746-.651.317-1.033.397-.772.114-1.175.104v2.286h2.589v6.367h3.302zm-10.12-5.833c-.082-.45-.13-.911-.13-1.385 0-4.278 3.461-7.759 7.73-7.796v.004c4.278.028 7.749 3.514 7.749 7.797 0 .474-.049.935-.13 1.385h1.957c.064-.454.109-.913.109-1.385 0-5.345-4.331-9.696-9.667-9.734v-.006c-5.345.028-9.685 4.384-9.685 9.735 0 .472.045.931.11 1.385h1.957zm-3.048 4.626s1.169-.643 1.377-2.037-.867-2.37-.867-2.37-1.023.734-1.237 2.166.727 2.241.727 2.241zm.767 1.378c-.024 1.446 1.013 2.127 1.013 2.127s1.075-.79 1.1-2.2-1.169-2.236-1.169-2.236-.92.86-.944 2.309zm3.174-.269s-.834.944-.723 2.389 1.208 2.021 1.208 2.021.997-.886.889-2.293-1.374-2.117-1.374-2.117zm3.808 6.149s.7-1.137.191-2.453-1.926-1.631-1.926-1.631-.527 1.145-.004 2.495 1.739 1.589 1.739 1.589zM3.5 15.963s.913-.84.652-2.264-1.307-2.123-1.307-2.123-1.041 1.009-.787 2.398S3.5 15.963 3.5 15.963zm.75 5.814s-.076-1.238-1.344-1.936-2.473-.326-2.473-.326.125 1.444 1.362 2.125 2.455.137 2.455.137zm2.145 2.396s-.349-1.189-1.74-1.588-2.484.231-2.484.231.443 1.381 1.799 1.769 2.425-.412 2.425-.412zm2.392 1.703s-.693-1.027-2.14-.986-2.297.972-2.297.972.84 1.183 2.25 1.142 2.187-1.128 2.187-1.128zm1.023.696c-1.432.215-2.165 1.238-2.165 1.238s.976 1.074 2.371.865 2.036-1.381 2.036-1.381-.813-.938-2.242-.722zm-5.835-9.905l-.689-.023c-.003.074-.138 7.559 11.168 10.875l.194-.662C3.882 23.699 3.965 16.954 3.975 16.667zm24.783 2.389s1.325.158 2.306-.855.675-2.431.675-2.431-1.26 0-2.267 1.041-.714 2.245-.714 2.245zm-3.587-2.266c.208 1.396 1.377 2.037 1.377 2.037s.939-.81.727-2.241-1.236-2.166-1.236-2.166-1.076.974-.868 2.37zm-1.502 3.342c.023 1.409 1.1 2.199 1.1 2.199s1.037-.68 1.013-2.127-.942-2.309-.942-2.309-1.194.827-1.171 2.237zm-2.437 1.922c-.107 1.407.89 2.293.89 2.293s1.097-.578 1.208-2.021-.724-2.389-.724-2.389-1.263.711-1.374 2.117zm-2.624 1.578c-.508 1.317.192 2.453.192 2.453s1.217-.238 1.739-1.589-.004-2.495-.004-2.495-1.416.317-1.927 1.631zm11.12-9.653c.254-1.389-.787-2.398-.787-2.398s-1.048.7-1.308 2.124.652 2.264.652 2.264 1.19-.602 1.443-1.99zm-.848 5.868c-1.269.697-1.344 1.936-1.344 1.936s1.219.543 2.456-.137 1.361-2.125 1.361-2.125-1.205-.371-2.473.326zm-1.749 2.744c-1.392.397-1.74 1.588-1.74 1.588s1.068.799 2.425.412 1.799-1.77 1.799-1.77-1.092-.628-2.484-.23zm-1.993 2.303c-1.446-.041-2.14.988-2.14.988s.775 1.086 2.187 1.127 2.25-1.143 2.25-1.143-.849-.929-2.297-.972zm-3.162 1.683c-1.431-.215-2.242.724-2.242.724s.641 1.17 2.036 1.381 2.371-.864 2.371-.864-.733-1.026-2.165-1.241zm6.525-9.928l-.689.024c.009.285.091 7.03-10.673 10.189l.194.663c11.306-3.317 11.17-10.801 11.168-10.876z"/></svg>
