<svg xmlns="http://www.w3.org/2000/svg" viewBox="0 0 24 24" fill="none" id="f_icon_11" ml-update="aware"><circle cx="12" cy="12" r="12" fill="#1F1F22"/><path fill-rule="evenodd" clip-rule="evenodd" d="M16.686 17.467a7.2 7.2 0 1 0-9.371 0l-1.563 1.822A9.58 9.58 0 0 1 2.4 12 9.6 9.6 0 0 1 12 2.4a9.6 9.6 0 0 1 9.6 9.6 9.58 9.58 0 0 1-3.352 7.29l-1.562-1.823z" fill="#CDCDCD" fill-opacity=".1"/><path fill-rule="evenodd" clip-rule="evenodd" d="M16.686 17.467a7.2 7.2 0 1 0-9.371 0l-1.563 1.822A9.58 9.58 0 0 1 2.4 12 9.6 9.6 0 0 1 12 2.4a9.6 9.6 0 0 1 9.6 9.6 9.58 9.58 0 0 1-3.352 7.29l-1.562-1.823z" fill="#00faff"/><path fill="#00faff" d="M9.233 10.233l-1.487.824v-1.034l1.722-1.075h.991V14.4H9.233 M14.233 10.233l-1.487.824v-1.034l1.722-1.075h.991V14.4H14.233"/></svg>
