<?xml version="1.0" encoding="UTF-8"?>
<!DOCTYPE svg PUBLIC "-//W3C//DTD SVG 1.1//EN" "http://www.w3.org/Graphics/SVG/1.1/DTD/svg11.dtd">
<svg xmlns="http://www.w3.org/2000/svg" version="1.1" width="48px" height="48px" style="shape-rendering:geometricPrecision; text-rendering:geometricPrecision; image-rendering:optimizeQuality; fill-rule:evenodd; clip-rule:evenodd" xmlns:xlink="http://www.w3.org/1999/xlink">
<g><path style="opacity:0.976" fill="#1f1f22" d="M 16.5,-0.5 C 21.1667,-0.5 25.8333,-0.5 30.5,-0.5C 38.5,2.83333 44.1667,8.5 47.5,16.5C 47.5,21.1667 47.5,25.8333 47.5,30.5C 44.1667,38.5 38.5,44.1667 30.5,47.5C 25.8333,47.5 21.1667,47.5 16.5,47.5C 8.5,44.1667 2.83333,38.5 -0.5,30.5C -0.5,25.8333 -0.5,21.1667 -0.5,16.5C 2.83333,8.5 8.5,2.83333 16.5,-0.5 Z"/></g>
<g><path style="opacity:1" fill="#2f2f32" d="M 11.5,31.5 C 9.59565,31.7376 8.26231,32.7376 7.5,34.5C 0.971636,21.3793 4.30497,11.546 17.5,5C 34.6798,2.85027 42.8465,10.3503 42,27.5C 41.4363,31.1267 39.9363,34.2934 37.5,37C 35.6086,37.3087 34.2752,36.4753 33.5,34.5C 38.1665,28.1644 38.6665,21.4977 35,14.5C 27.3333,7.83333 19.6667,7.83333 12,14.5C 8.84117,20.0893 8.6745,25.7559 11.5,31.5 Z"/></g>
<g><path style="opacity:1" fill="#979798" d="M 11.5,31.5 C 14.3104,33.9465 14.1437,36.2798 11,38.5C 9.59524,37.2695 8.42857,35.9361 7.5,34.5C 8.26231,32.7376 9.59565,31.7376 11.5,31.5 Z"/></g>
<g><path style="opacity:1" fill="#2f3032" d="M 9.5,33.5 C 11.337,33.6395 11.6704,34.3061 10.5,35.5C 9.70245,35.0431 9.36912,34.3764 9.5,33.5 Z"/></g>
</svg>
